# xmcd CD database file
#
# Track frame offsets:
#	150
#	17064
#	31867
#	51132
#	62688
#	79703
#	94830
#	106983
#	133009
#	151041
#	165214
#
# Disc length: 2444 seconds
#
# Revision: 0
# Processed by: cddbd v1.5PL3 Copyright (c) Steve Scherf et al.
# Submitted via: CDex 1.51
#
DISCID=77098a0b
DTITLE=Shlomo Carlebach - Hitoriri
DYEAR=0
DGENRE=Salsa
TTITLE0=Vehayu L'mshisa
TTITLE1=Shomrim Eefked
TTITLE2=Mimkomcha Malkeinu
TTITLE3=Yasis Aleiyich
TTITLE4=Gam Ki Eilech
TTITLE5=Ki Mitziyon
TTITLE6=Hitoriri
TTITLE7=Ani Mamin
TTITLE8=Ufros Alaynu
TTITLE9=Sim Shalom
TTITLE10=Eshes Chayil
EXTD=YEAR: 0
EXTT0=
EXTT1=
EXTT2=
EXTT3=
EXTT4=
EXTT5=
EXTT6=
EXTT7=
EXTT8=
EXTT9=
EXTT10=
PLAYORDER=
